<mxfile host="Electron" agent="Mozilla/5.0 (Windows NT 10.0; Win64; x64) AppleWebKit/537.36 (KHTML, like Gecko) draw.io/24.7.8 Chrome/128.0.6613.36 Electron/32.0.1 Safari/537.36" version="24.7.8">
  <diagram name="Page-1" id="S-KjxUIFLZ_ENV5EZdhS">
    <mxGraphModel dx="868" dy="1022" grid="1" gridSize="10" guides="1" tooltips="1" connect="1" arrows="1" fold="1" page="1" pageScale="1" pageWidth="850" pageHeight="1100" math="0" shadow="0">
      <root>
        <mxCell id="0" />
        <mxCell id="1" parent="0" />
        <mxCell id="j0Kjn5IcFYhQ3c4-ktUc-6" value="" style="edgeStyle=orthogonalEdgeStyle;rounded=0;orthogonalLoop=1;jettySize=auto;html=1;" edge="1" parent="1" source="j0Kjn5IcFYhQ3c4-ktUc-1" target="j0Kjn5IcFYhQ3c4-ktUc-2">
          <mxGeometry relative="1" as="geometry" />
        </mxCell>
        <mxCell id="j0Kjn5IcFYhQ3c4-ktUc-1" value="Start" style="rounded=1;whiteSpace=wrap;html=1;" vertex="1" parent="1">
          <mxGeometry x="365" y="40" width="120" height="60" as="geometry" />
        </mxCell>
        <mxCell id="j0Kjn5IcFYhQ3c4-ktUc-7" value="" style="edgeStyle=orthogonalEdgeStyle;rounded=0;orthogonalLoop=1;jettySize=auto;html=1;" edge="1" parent="1" source="j0Kjn5IcFYhQ3c4-ktUc-2" target="j0Kjn5IcFYhQ3c4-ktUc-3">
          <mxGeometry relative="1" as="geometry" />
        </mxCell>
        <mxCell id="j0Kjn5IcFYhQ3c4-ktUc-2" value="munites: (int) = &quot;How much minutes does the film go? &quot;" style="shape=card;whiteSpace=wrap;html=1;" vertex="1" parent="1">
          <mxGeometry x="340" y="150" width="170" height="60" as="geometry" />
        </mxCell>
        <mxCell id="j0Kjn5IcFYhQ3c4-ktUc-8" value="" style="edgeStyle=orthogonalEdgeStyle;rounded=0;orthogonalLoop=1;jettySize=auto;html=1;" edge="1" parent="1" source="j0Kjn5IcFYhQ3c4-ktUc-3" target="j0Kjn5IcFYhQ3c4-ktUc-4">
          <mxGeometry relative="1" as="geometry" />
        </mxCell>
        <mxCell id="j0Kjn5IcFYhQ3c4-ktUc-3" value="convartion_h: (int) = minutes // 60" style="rounded=0;whiteSpace=wrap;html=1;" vertex="1" parent="1">
          <mxGeometry x="340" y="260" width="170" height="60" as="geometry" />
        </mxCell>
        <mxCell id="j0Kjn5IcFYhQ3c4-ktUc-9" value="" style="edgeStyle=orthogonalEdgeStyle;rounded=0;orthogonalLoop=1;jettySize=auto;html=1;" edge="1" parent="1" source="j0Kjn5IcFYhQ3c4-ktUc-4" target="j0Kjn5IcFYhQ3c4-ktUc-5">
          <mxGeometry relative="1" as="geometry" />
        </mxCell>
        <mxCell id="j0Kjn5IcFYhQ3c4-ktUc-4" value="convartion" style="shape=document;whiteSpace=wrap;html=1;boundedLbl=1;" vertex="1" parent="1">
          <mxGeometry x="340" y="490" width="170" height="80" as="geometry" />
        </mxCell>
        <mxCell id="j0Kjn5IcFYhQ3c4-ktUc-5" value="End" style="rounded=1;whiteSpace=wrap;html=1;" vertex="1" parent="1">
          <mxGeometry x="365" y="640" width="120" height="60" as="geometry" />
        </mxCell>
        <mxCell id="j0Kjn5IcFYhQ3c4-ktUc-10" value="convartion_m: (int) = minutes % 60" style="rounded=0;whiteSpace=wrap;html=1;" vertex="1" parent="1">
          <mxGeometry x="340" y="380" width="170" height="60" as="geometry" />
        </mxCell>
      </root>
    </mxGraphModel>
  </diagram>
</mxfile>
